<svg xmlns="http://www.w3.org/2000/svg" xmlns:xlink="http://www.w3.org/1999/xlink" width="500" zoomAndPan="magnify" viewBox="0 0 375 374.999991" height="500" preserveAspectRatio="xMidYMid meet" version="1.0"><defs><g/><clipPath id="2e842c78f5"><path d="M 275.382812 143.714844 L 286.300781 143.714844 L 286.300781 154.636719 L 275.382812 154.636719 Z M 275.382812 143.714844 " clip-rule="nonzero"/></clipPath><clipPath id="f245a0d2a6"><path d="M 280.84375 143.714844 C 277.828125 143.714844 275.382812 146.160156 275.382812 149.175781 C 275.382812 152.191406 277.828125 154.636719 280.84375 154.636719 C 283.859375 154.636719 286.300781 152.191406 286.300781 149.175781 C 286.300781 146.160156 283.859375 143.714844 280.84375 143.714844 " clip-rule="nonzero"/></clipPath><clipPath id="f73726c528"><path d="M 21 128.933594 L 120.386719 128.933594 L 120.386719 233.933594 L 21 233.933594 Z M 21 128.933594 " clip-rule="nonzero"/></clipPath><clipPath id="28f9cf1274"><path d="M 77.9375 177.851562 L 33.414062 177.851562 C 31.6875 177.851562 30.4375 176.199219 30.902344 174.53125 L 43.125 130.84375 C 43.441406 129.71875 44.46875 128.9375 45.636719 128.9375 L 90.160156 128.9375 C 91.886719 128.9375 93.136719 130.589844 92.667969 132.257812 L 80.445312 175.945312 C 80.128906 177.070312 79.105469 177.851562 77.9375 177.851562 Z M 49.015625 210.828125 L 55.3125 188.332031 C 55.777344 186.667969 54.527344 185.011719 52.800781 185.011719 L 29.914062 185.011719 C 28.746094 185.011719 27.71875 185.792969 27.402344 186.921875 L 21.109375 209.414062 C 20.644531 211.082031 21.894531 212.734375 23.621094 212.734375 L 46.507812 212.734375 C 47.675781 212.734375 48.703125 211.957031 49.015625 210.828125 Z M 60.597656 186.921875 L 48.375 230.605469 C 47.910156 232.273438 49.160156 233.925781 50.886719 233.925781 L 95.410156 233.925781 C 96.578125 233.925781 97.601562 233.148438 97.917969 232.019531 L 110.140625 188.332031 C 110.609375 186.667969 109.359375 185.011719 107.632812 185.011719 L 63.109375 185.011719 C 61.941406 185.011719 60.914062 185.792969 60.597656 186.921875 Z M 92.027344 152.039062 L 85.734375 174.53125 C 85.265625 176.199219 86.515625 177.851562 88.242188 177.851562 L 111.132812 177.851562 C 112.300781 177.851562 113.324219 177.070312 113.640625 175.945312 L 119.933594 153.449219 C 120.402344 151.785156 119.152344 150.128906 117.425781 150.128906 L 94.539062 150.128906 C 93.367188 150.128906 92.34375 150.910156 92.027344 152.039062 Z M 92.027344 152.039062 " clip-rule="nonzero"/></clipPath><linearGradient x1="114.296439" gradientTransform="matrix(0.209383, 0, 0, 0.209979, 21.011814, 128.937817)" y1="-47.633977" x2="358.610855" gradientUnits="userSpaceOnUse" y2="547.60723" id="35051db629"><stop stop-opacity="1" stop-color="rgb(0%, 98.799133%, 65.899658%)" offset="0"/><stop stop-opacity="1" stop-color="rgb(0%, 98.799133%, 65.899658%)" offset="0.0625"/><stop stop-opacity="1" stop-color="rgb(0.0213623%, 98.773193%, 65.965271%)" offset="0.09375"/><stop stop-opacity="1" stop-color="rgb(0.100708%, 98.677063%, 66.210938%)" offset="0.101563"/><stop stop-opacity="1" stop-color="rgb(0.216675%, 98.536682%, 66.571045%)" offset="0.109375"/><stop stop-opacity="1" stop-color="rgb(0.332642%, 98.396301%, 66.929626%)" offset="0.117188"/><stop stop-opacity="1" stop-color="rgb(0.448608%, 98.25592%, 67.289734%)" offset="0.125"/><stop stop-opacity="1" stop-color="rgb(0.564575%, 98.117065%, 67.649841%)" offset="0.132812"/><stop stop-opacity="1" stop-color="rgb(0.679016%, 97.976685%, 68.008423%)" offset="0.140625"/><stop stop-opacity="1" stop-color="rgb(0.794983%, 97.836304%, 68.36853%)" offset="0.148438"/><stop stop-opacity="1" stop-color="rgb(0.91095%, 97.695923%, 68.727112%)" offset="0.15625"/><stop stop-opacity="1" stop-color="rgb(1.026917%, 97.555542%, 69.087219%)" offset="0.164063"/><stop stop-opacity="1" stop-color="rgb(1.142883%, 97.415161%, 69.445801%)" offset="0.171875"/><stop stop-opacity="1" stop-color="rgb(1.25885%, 97.27478%, 69.805908%)" offset="0.179688"/><stop stop-opacity="1" stop-color="rgb(1.374817%, 97.135925%, 70.16449%)" offset="0.1875"/><stop stop-opacity="1" stop-color="rgb(1.490784%, 96.995544%, 70.524597%)" offset="0.195312"/><stop stop-opacity="1" stop-color="rgb(1.60675%, 96.855164%, 70.883179%)" offset="0.203125"/><stop stop-opacity="1" stop-color="rgb(1.722717%, 96.714783%, 71.243286%)" offset="0.210937"/><stop stop-opacity="1" stop-color="rgb(1.838684%, 96.574402%, 71.603394%)" offset="0.21875"/><stop stop-opacity="1" stop-color="rgb(1.954651%, 96.434021%, 71.961975%)" offset="0.226562"/><stop stop-opacity="1" stop-color="rgb(2.070618%, 96.29364%, 72.322083%)" offset="0.234375"/><stop stop-opacity="1" stop-color="rgb(2.186584%, 96.153259%, 72.680664%)" offset="0.242188"/><stop stop-opacity="1" stop-color="rgb(2.302551%, 96.014404%, 73.040771%)" offset="0.25"/><stop stop-opacity="1" stop-color="rgb(2.418518%, 95.874023%, 73.399353%)" offset="0.257812"/><stop stop-opacity="1" stop-color="rgb(2.534485%, 95.733643%, 73.75946%)" offset="0.265625"/><stop stop-opacity="1" stop-color="rgb(2.650452%, 95.593262%, 74.118042%)" offset="0.273438"/><stop stop-opacity="1" stop-color="rgb(2.766418%, 95.452881%, 74.478149%)" offset="0.281113"/><stop stop-opacity="1" stop-color="rgb(2.824402%, 95.38269%, 74.658203%)" offset="0.28125"/><stop stop-opacity="1" stop-color="rgb(2.882385%, 95.3125%, 74.836731%)" offset="0.289062"/><stop stop-opacity="1" stop-color="rgb(2.998352%, 95.172119%, 75.196838%)" offset="0.296875"/><stop stop-opacity="1" stop-color="rgb(3.114319%, 95.031738%, 75.556946%)" offset="0.304688"/><stop stop-opacity="1" stop-color="rgb(3.230286%, 94.892883%, 75.915527%)" offset="0.3125"/><stop stop-opacity="1" stop-color="rgb(3.346252%, 94.752502%, 76.275635%)" offset="0.320313"/><stop stop-opacity="1" stop-color="rgb(3.462219%, 94.612122%, 76.634216%)" offset="0.328125"/><stop stop-opacity="1" stop-color="rgb(3.578186%, 94.471741%, 76.994324%)" offset="0.335938"/><stop stop-opacity="1" stop-color="rgb(3.694153%, 94.33136%, 77.352905%)" offset="0.34375"/><stop stop-opacity="1" stop-color="rgb(3.81012%, 94.190979%, 77.713013%)" offset="0.351563"/><stop stop-opacity="1" stop-color="rgb(3.926086%, 94.050598%, 78.071594%)" offset="0.359375"/><stop stop-opacity="1" stop-color="rgb(4.042053%, 93.911743%, 78.431702%)" offset="0.367188"/><stop stop-opacity="1" stop-color="rgb(4.15802%, 93.771362%, 78.790283%)" offset="0.375"/><stop stop-opacity="1" stop-color="rgb(4.273987%, 93.630981%, 79.150391%)" offset="0.382813"/><stop stop-opacity="1" stop-color="rgb(4.389954%, 93.490601%, 79.510498%)" offset="0.390625"/><stop stop-opacity="1" stop-color="rgb(4.50592%, 93.35022%, 79.86908%)" offset="0.398438"/><stop stop-opacity="1" stop-color="rgb(4.621887%, 93.209839%, 80.229187%)" offset="0.40625"/><stop stop-opacity="1" stop-color="rgb(4.737854%, 93.069458%, 80.587769%)" offset="0.414062"/><stop stop-opacity="1" stop-color="rgb(4.853821%, 92.929077%, 80.947876%)" offset="0.421875"/><stop stop-opacity="1" stop-color="rgb(4.969788%, 92.790222%, 81.306458%)" offset="0.429688"/><stop stop-opacity="1" stop-color="rgb(5.085754%, 92.649841%, 81.666565%)" offset="0.4375"/><stop stop-opacity="1" stop-color="rgb(5.201721%, 92.50946%, 82.025146%)" offset="0.445312"/><stop stop-opacity="1" stop-color="rgb(5.317688%, 92.36908%, 82.385254%)" offset="0.453125"/><stop stop-opacity="1" stop-color="rgb(5.433655%, 92.228699%, 82.743835%)" offset="0.460938"/><stop stop-opacity="1" stop-color="rgb(5.549622%, 92.088318%, 83.103943%)" offset="0.46875"/><stop stop-opacity="1" stop-color="rgb(5.665588%, 91.947937%, 83.46405%)" offset="0.476563"/><stop stop-opacity="1" stop-color="rgb(5.781555%, 91.807556%, 83.822632%)" offset="0.484375"/><stop stop-opacity="1" stop-color="rgb(5.897522%, 91.668701%, 84.182739%)" offset="0.492188"/><stop stop-opacity="1" stop-color="rgb(6.013489%, 91.52832%, 84.541321%)" offset="0.5"/><stop stop-opacity="1" stop-color="rgb(6.129456%, 91.387939%, 84.901428%)" offset="0.507813"/><stop stop-opacity="1" stop-color="rgb(6.245422%, 91.247559%, 85.26001%)" offset="0.515625"/><stop stop-opacity="1" stop-color="rgb(6.361389%, 91.107178%, 85.620117%)" offset="0.523438"/><stop stop-opacity="1" stop-color="rgb(6.477356%, 90.966797%, 85.978699%)" offset="0.53125"/><stop stop-opacity="1" stop-color="rgb(6.593323%, 90.826416%, 86.338806%)" offset="0.539062"/><stop stop-opacity="1" stop-color="rgb(6.70929%, 90.687561%, 86.697388%)" offset="0.546875"/><stop stop-opacity="1" stop-color="rgb(6.825256%, 90.54718%, 87.057495%)" offset="0.554688"/><stop stop-opacity="1" stop-color="rgb(6.941223%, 90.406799%, 87.417603%)" offset="0.5625"/><stop stop-opacity="1" stop-color="rgb(7.05719%, 90.266418%, 87.776184%)" offset="0.570312"/><stop stop-opacity="1" stop-color="rgb(7.171631%, 90.126038%, 88.136292%)" offset="0.578125"/><stop stop-opacity="1" stop-color="rgb(7.287598%, 89.985657%, 88.494873%)" offset="0.585938"/><stop stop-opacity="1" stop-color="rgb(7.403564%, 89.845276%, 88.85498%)" offset="0.59375"/><stop stop-opacity="1" stop-color="rgb(7.519531%, 89.704895%, 89.213562%)" offset="0.601562"/><stop stop-opacity="1" stop-color="rgb(7.635498%, 89.56604%, 89.573669%)" offset="0.609375"/><stop stop-opacity="1" stop-color="rgb(7.751465%, 89.425659%, 89.932251%)" offset="0.617188"/><stop stop-opacity="1" stop-color="rgb(7.867432%, 89.285278%, 90.292358%)" offset="0.625"/><stop stop-opacity="1" stop-color="rgb(7.983398%, 89.144897%, 90.65094%)" offset="0.632812"/><stop stop-opacity="1" stop-color="rgb(8.099365%, 89.004517%, 91.011047%)" offset="0.640625"/><stop stop-opacity="1" stop-color="rgb(8.215332%, 88.864136%, 91.371155%)" offset="0.648438"/><stop stop-opacity="1" stop-color="rgb(8.331299%, 88.723755%, 91.729736%)" offset="0.65625"/><stop stop-opacity="1" stop-color="rgb(8.447266%, 88.583374%, 92.089844%)" offset="0.664062"/><stop stop-opacity="1" stop-color="rgb(8.563232%, 88.444519%, 92.448425%)" offset="0.671875"/><stop stop-opacity="1" stop-color="rgb(8.679199%, 88.304138%, 92.808533%)" offset="0.679688"/><stop stop-opacity="1" stop-color="rgb(8.795166%, 88.163757%, 93.167114%)" offset="0.6875"/><stop stop-opacity="1" stop-color="rgb(8.911133%, 88.023376%, 93.527222%)" offset="0.695313"/><stop stop-opacity="1" stop-color="rgb(9.0271%, 87.882996%, 93.885803%)" offset="0.703125"/><stop stop-opacity="1" stop-color="rgb(9.143066%, 87.742615%, 94.245911%)" offset="0.710938"/><stop stop-opacity="1" stop-color="rgb(9.259033%, 87.602234%, 94.604492%)" offset="0.71875"/><stop stop-opacity="1" stop-color="rgb(9.375%, 87.463379%, 94.9646%)" offset="0.718887"/><stop stop-opacity="1" stop-color="rgb(9.432983%, 87.393188%, 95.144653%)" offset="0.726563"/><stop stop-opacity="1" stop-color="rgb(9.490967%, 87.322998%, 95.324707%)" offset="0.734375"/><stop stop-opacity="1" stop-color="rgb(9.606934%, 87.182617%, 95.683289%)" offset="0.742188"/><stop stop-opacity="1" stop-color="rgb(9.7229%, 87.042236%, 96.043396%)" offset="0.75"/><stop stop-opacity="1" stop-color="rgb(9.838867%, 86.901855%, 96.401978%)" offset="0.757813"/><stop stop-opacity="1" stop-color="rgb(9.954834%, 86.761475%, 96.762085%)" offset="0.765625"/><stop stop-opacity="1" stop-color="rgb(10.070801%, 86.621094%, 97.120667%)" offset="0.773438"/><stop stop-opacity="1" stop-color="rgb(10.186768%, 86.480713%, 97.480774%)" offset="0.78125"/><stop stop-opacity="1" stop-color="rgb(10.302734%, 86.341858%, 97.839355%)" offset="0.789062"/><stop stop-opacity="1" stop-color="rgb(10.418701%, 86.201477%, 98.199463%)" offset="0.796875"/><stop stop-opacity="1" stop-color="rgb(10.534668%, 86.061096%, 98.558044%)" offset="0.804687"/><stop stop-opacity="1" stop-color="rgb(10.650635%, 85.920715%, 98.918152%)" offset="0.8125"/><stop stop-opacity="1" stop-color="rgb(10.766602%, 85.780334%, 99.278259%)" offset="0.820312"/><stop stop-opacity="1" stop-color="rgb(10.882568%, 85.639954%, 99.636841%)" offset="0.828125"/><stop stop-opacity="1" stop-color="rgb(10.969543%, 85.534668%, 99.908447%)" offset="0.84375"/><stop stop-opacity="1" stop-color="rgb(10.998535%, 85.499573%, 100%)" offset="0.875"/><stop stop-opacity="1" stop-color="rgb(10.998535%, 85.499573%, 100%)" offset="1"/></linearGradient></defs><rect x="-37.5" width="450" fill="#ffffff" y="-37.499999" height="449.999989" fill-opacity="1"/><rect x="-37.5" width="450" fill="#292929" y="-37.499999" height="449.999989" fill-opacity="1"/><g fill="#00faa8" fill-opacity="1"><g transform="translate(133.053159, 165.236437)"><g><path d="M 9.109375 -0.734375 C 9.109375 -0.847656 9.175781 -0.90625 9.3125 -0.90625 L 9.953125 -0.90625 C 11.441406 -0.90625 12.640625 -1.222656 13.546875 -1.859375 C 14.453125 -2.503906 14.90625 -3.253906 14.90625 -4.109375 L 14.90625 -29.375 C 14.90625 -29.6875 14.835938 -29.863281 14.703125 -29.90625 C 14.578125 -29.945312 14.421875 -29.976562 14.234375 -30 L 5.484375 -30 C 4.066406 -29.695312 3.132812 -28.613281 2.6875 -26.75 C 2.445312 -25.738281 2.300781 -25.09375 2.25 -24.8125 C 2.207031 -24.53125 2.128906 -24.390625 2.015625 -24.390625 L 1.59375 -24.390625 C 1.5 -24.390625 1.453125 -24.421875 1.453125 -24.484375 L 1.453125 -25.234375 L 2.3125 -32.359375 C 2.394531 -32.828125 2.539062 -33.0625 2.75 -33.0625 C 2.96875 -33.0625 3.195312 -32.910156 3.4375 -32.609375 C 3.6875 -32.316406 4.15625 -32.171875 4.84375 -32.171875 L 29.4375 -32.171875 C 30.09375 -32.171875 30.488281 -32.242188 30.625 -32.390625 C 30.757812 -32.546875 30.882812 -32.695312 31 -32.84375 C 31.125 -32.988281 31.28125 -33.0625 31.46875 -33.0625 C 31.664062 -33.0625 31.789062 -32.984375 31.84375 -32.828125 C 31.894531 -32.679688 31.9375 -32.523438 31.96875 -32.359375 L 32.8125 -25.234375 L 32.8125 -24.484375 C 32.8125 -24.421875 32.765625 -24.390625 32.671875 -24.390625 L 32.265625 -24.390625 C 32.140625 -24.390625 32.054688 -24.503906 32.015625 -24.734375 C 31.773438 -26.253906 31.425781 -27.457031 30.96875 -28.34375 C 30.507812 -29.238281 29.785156 -29.789062 28.796875 -30 L 20.015625 -30 C 19.828125 -29.976562 19.664062 -29.945312 19.53125 -29.90625 C 19.40625 -29.863281 19.34375 -29.6875 19.34375 -29.375 L 19.34375 -4.109375 C 19.34375 -3.253906 19.796875 -2.503906 20.703125 -1.859375 C 21.609375 -1.222656 22.804688 -0.90625 24.296875 -0.90625 L 24.96875 -0.90625 C 25.082031 -0.90625 25.140625 -0.847656 25.140625 -0.734375 L 25.140625 -0.1875 C 25.140625 -0.0625 25.082031 0 24.96875 0 L 9.28125 0 C 9.164062 0 9.109375 -0.0625 9.109375 -0.1875 Z M 9.109375 -0.734375 "/></g></g></g><g fill="#00faa8" fill-opacity="1"><g transform="translate(167.31948, 165.236437)"><g><path d="M 0.15625 -0.1875 L 0.15625 -0.828125 C 0.15625 -0.941406 0.21875 -1 0.34375 -1 L 0.84375 -1 C 1.476562 -1.050781 2.128906 -1.078125 2.796875 -1.078125 C 3.472656 -1.085938 4.082031 -1.171875 4.625 -1.328125 C 5.875 -1.691406 6.5 -2.601562 6.5 -4.0625 L 6.5 -28.109375 C 6.5 -29.617188 5.609375 -30.578125 3.828125 -30.984375 C 3.328125 -31.097656 2.820312 -31.191406 2.3125 -31.265625 L 1.828125 -31.265625 C 1.703125 -31.265625 1.640625 -31.320312 1.640625 -31.4375 L 1.640625 -32 C 1.640625 -32.113281 1.703125 -32.171875 1.828125 -32.171875 L 23.53125 -32.171875 C 23.800781 -32.171875 23.992188 -32.117188 24.109375 -32.015625 C 24.234375 -31.921875 24.3125 -31.707031 24.34375 -31.375 L 24.765625 -24.765625 C 24.765625 -24.609375 24.648438 -24.53125 24.421875 -24.53125 C 24.191406 -24.53125 24.023438 -24.597656 23.921875 -24.734375 C 23.828125 -24.890625 23.707031 -25.445312 23.5625 -26.40625 C 23.414062 -27.363281 23.148438 -28.160156 22.765625 -28.796875 C 22.390625 -29.429688 21.722656 -29.832031 20.765625 -30 L 11.25 -30 C 11.050781 -30 10.953125 -29.90625 10.953125 -29.71875 L 10.953125 -17.90625 C 10.953125 -17.757812 11.03125 -17.6875 11.1875 -17.6875 L 19.078125 -17.6875 C 21.117188 -17.6875 22.140625 -18.875 22.140625 -21.25 C 22.140625 -21.363281 22.195312 -21.421875 22.3125 -21.421875 L 22.859375 -21.421875 C 22.984375 -21.421875 23.046875 -21.363281 23.046875 -21.25 L 23.046875 -11.484375 C 23.046875 -11.359375 22.984375 -11.296875 22.859375 -11.296875 L 22.3125 -11.296875 C 22.195312 -11.296875 22.140625 -11.359375 22.140625 -11.484375 C 22.140625 -13.734375 21.484375 -15.03125 20.171875 -15.375 C 19.804688 -15.46875 19.421875 -15.515625 19.015625 -15.515625 L 11.1875 -15.515625 C 11.03125 -15.515625 10.953125 -15.441406 10.953125 -15.296875 L 10.953125 -4.171875 C 10.953125 -3.035156 11.476562 -2.390625 12.53125 -2.234375 C 12.832031 -2.191406 13.148438 -2.171875 13.484375 -2.171875 L 21.078125 -2.171875 C 22.648438 -2.171875 23.867188 -2.863281 24.734375 -4.25 C 25.359375 -5.238281 25.738281 -6.367188 25.875 -7.640625 C 25.925781 -8.066406 26.15625 -8.28125 26.5625 -8.28125 C 26.738281 -8.28125 26.828125 -8.179688 26.828125 -7.984375 L 26.078125 -0.3125 C 25.992188 -0.101562 25.890625 0 25.765625 0 L 0.34375 0 C 0.21875 0 0.15625 -0.0625 0.15625 -0.1875 Z M 0.15625 -0.1875 "/></g></g></g><g fill="#00faa8" fill-opacity="1"><g transform="translate(196.156118, 165.236437)"><g><path d="M 1.09375 0 C 0.96875 0 0.90625 -0.0625 0.90625 -0.1875 L 0.90625 -0.734375 C 0.90625 -0.847656 0.96875 -0.90625 1.09375 -0.90625 L 1.640625 -0.90625 C 2.953125 -0.90625 4.09375 -1.179688 5.0625 -1.734375 C 5.457031 -1.960938 5.785156 -2.316406 6.046875 -2.796875 C 6.304688 -3.273438 6.4375 -3.8125 6.4375 -4.40625 L 6.4375 -28.546875 C 6.4375 -29.492188 5.828125 -30.21875 4.609375 -30.71875 C 3.753906 -31.082031 2.847656 -31.265625 1.890625 -31.265625 L 1.390625 -31.265625 C 1.265625 -31.265625 1.203125 -31.320312 1.203125 -31.4375 L 1.203125 -32 C 1.203125 -32.113281 1.265625 -32.171875 1.390625 -32.171875 L 16.84375 -32.171875 C 16.957031 -32.171875 17.015625 -32.113281 17.015625 -32 L 17.015625 -31.4375 C 17.015625 -31.320312 16.957031 -31.265625 16.84375 -31.265625 L 15.859375 -31.265625 C 14.296875 -31.265625 12.910156 -31.039062 11.703125 -30.59375 C 11.359375 -30.476562 11.132812 -30.28125 11.03125 -30 C 10.9375 -29.71875 10.890625 -29.234375 10.890625 -28.546875 L 10.890625 -3.234375 C 10.921875 -2.984375 11.054688 -2.742188 11.296875 -2.515625 C 11.535156 -2.285156 11.804688 -2.171875 12.109375 -2.171875 L 21.125 -2.171875 C 22.476562 -2.171875 23.8125 -2.96875 25.125 -4.5625 C 25.476562 -4.988281 25.910156 -5.554688 26.421875 -6.265625 C 26.941406 -6.972656 27.265625 -7.375 27.390625 -7.46875 C 27.867188 -7.832031 28.109375 -7.820312 28.109375 -7.4375 C 28.109375 -7.34375 28.085938 -7.253906 28.046875 -7.171875 L 24.59375 -0.40625 C 24.457031 -0.132812 24.300781 0 24.125 0 Z M 1.09375 0 "/></g></g></g><g fill="#00faa8" fill-opacity="1"><g transform="translate(224.422416, 165.236437)"><g><path d="M 30.6875 -0.859375 C 30.613281 -0.742188 30.425781 -0.71875 30.125 -0.78125 C 29.832031 -0.851562 29.488281 -0.890625 29.09375 -0.890625 C 28.695312 -0.890625 28.132812 -0.804688 27.40625 -0.640625 C 26.6875 -0.484375 25.550781 -0.238281 24 0.09375 C 22.445312 0.4375 21.035156 0.609375 19.765625 0.609375 C 16.867188 0.609375 14.0625 -0.0664062 11.34375 -1.421875 C 8.632812 -2.785156 6.460938 -4.71875 4.828125 -7.21875 C 3.203125 -9.71875 2.390625 -12.617188 2.390625 -15.921875 C 2.390625 -19.222656 3.207031 -22.210938 4.84375 -24.890625 C 7.207031 -28.816406 10.78125 -31.375 15.5625 -32.5625 C 17.082031 -32.945312 18.601562 -33.140625 20.125 -33.140625 C 22.207031 -33.140625 24.679688 -32.785156 27.546875 -32.078125 C 28.410156 -31.867188 29.140625 -31.648438 29.734375 -31.421875 C 30.335938 -31.191406 30.710938 -31.078125 30.859375 -31.078125 L 31.53125 -31.265625 L 32.25 -31.265625 C 32.425781 -31.265625 32.515625 -31.132812 32.515625 -30.875 L 32.515625 -23.78125 C 32.515625 -23.625 32.378906 -23.546875 32.109375 -23.546875 C 31.835938 -23.546875 31.675781 -23.578125 31.625 -23.640625 C 31.582031 -23.710938 31.535156 -23.796875 31.484375 -23.890625 C 31.441406 -23.992188 31.394531 -24.097656 31.34375 -24.203125 C 31.289062 -24.316406 31.238281 -24.414062 31.1875 -24.5 C 31.132812 -24.59375 31.097656 -24.664062 31.078125 -24.71875 C 28.796875 -29.289062 25.335938 -31.578125 20.703125 -31.578125 C 16.515625 -31.578125 13.238281 -30.242188 10.875 -27.578125 C 8.519531 -24.921875 7.34375 -21.394531 7.34375 -17 C 7.34375 -12.613281 8.640625 -8.847656 11.234375 -5.703125 C 13.828125 -2.554688 17.351562 -0.984375 21.8125 -0.984375 C 24.25 -0.984375 26.46875 -1.703125 28.46875 -3.140625 C 30.46875 -4.585938 32.035156 -6.363281 33.171875 -8.46875 C 33.203125 -8.5625 33.296875 -8.609375 33.453125 -8.609375 L 33.75 -8.609375 C 33.90625 -8.609375 33.984375 -8.515625 33.984375 -8.328125 C 33.984375 -8.148438 33.9375 -7.972656 33.84375 -7.796875 Z M 30.6875 -0.859375 "/></g></g></g><g fill="#00faa8" fill-opacity="1"><g transform="translate(260.14882, 165.236437)"><g><path d="M 29.25 -1.96875 C 27.925781 -1.15625 26.476562 -0.519531 24.90625 -0.0625 C 23.34375 0.382812 21.957031 0.609375 20.75 0.609375 C 18.25 0.609375 15.863281 0.207031 13.59375 -0.59375 C 10.488281 -1.71875 7.992188 -3.382812 6.109375 -5.59375 C 3.710938 -8.40625 2.515625 -11.972656 2.515625 -16.296875 C 2.515625 -19.410156 3.3125 -22.25 4.90625 -24.8125 C 6.5 -27.375 8.707031 -29.398438 11.53125 -30.890625 C 14.351562 -32.390625 17.390625 -33.140625 20.640625 -33.140625 C 23.890625 -33.140625 26.796875 -32.414062 29.359375 -30.96875 C 31.929688 -29.519531 33.992188 -27.53125 35.546875 -25 C 37.097656 -22.476562 37.875 -19.742188 37.875 -16.796875 C 37.875 -13.859375 37.101562 -11.0625 35.5625 -8.40625 C 34.03125 -5.75 31.925781 -3.601562 29.25 -1.96875 Z M 7.296875 -17.015625 C 7.296875 -14.492188 7.851562 -11.988281 8.96875 -9.5 C 10.09375 -7.007812 11.695312 -4.984375 13.78125 -3.421875 C 15.863281 -1.859375 18.273438 -1.078125 21.015625 -1.078125 C 24.910156 -1.078125 27.945312 -2.566406 30.125 -5.546875 C 32.082031 -8.234375 33.0625 -11.671875 33.0625 -15.859375 C 33.0625 -20.046875 31.859375 -23.648438 29.453125 -26.671875 C 28.285156 -28.148438 26.851562 -29.332031 25.15625 -30.21875 C 23.457031 -31.113281 21.742188 -31.5625 20.015625 -31.5625 C 18.296875 -31.5625 16.882812 -31.367188 15.78125 -30.984375 C 14.675781 -30.609375 13.675781 -30.085938 12.78125 -29.421875 C 11.882812 -28.765625 11.09375 -27.976562 10.40625 -27.0625 C 9.71875 -26.144531 9.144531 -25.15625 8.6875 -24.09375 C 7.757812 -21.90625 7.296875 -19.546875 7.296875 -17.015625 Z M 7.296875 -17.015625 "/></g></g></g><g fill="#1cdaff" fill-opacity="1"><g transform="translate(133.053159, 230.486433)"><g><path d="M 1.09375 0 C 0.96875 0 0.90625 -0.0625 0.90625 -0.1875 L 0.90625 -0.734375 C 0.90625 -0.847656 0.96875 -0.90625 1.09375 -0.90625 L 1.640625 -0.90625 C 2.953125 -0.90625 4.09375 -1.179688 5.0625 -1.734375 C 5.457031 -1.960938 5.785156 -2.316406 6.046875 -2.796875 C 6.304688 -3.273438 6.4375 -3.8125 6.4375 -4.40625 L 6.4375 -28.546875 C 6.4375 -29.492188 5.828125 -30.21875 4.609375 -30.71875 C 3.753906 -31.082031 2.847656 -31.265625 1.890625 -31.265625 L 1.390625 -31.265625 C 1.265625 -31.265625 1.203125 -31.320312 1.203125 -31.4375 L 1.203125 -32 C 1.203125 -32.113281 1.265625 -32.171875 1.390625 -32.171875 L 16.84375 -32.171875 C 16.957031 -32.171875 17.015625 -32.113281 17.015625 -32 L 17.015625 -31.4375 C 17.015625 -31.320312 16.957031 -31.265625 16.84375 -31.265625 L 15.859375 -31.265625 C 14.296875 -31.265625 12.910156 -31.039062 11.703125 -30.59375 C 11.359375 -30.476562 11.132812 -30.28125 11.03125 -30 C 10.9375 -29.71875 10.890625 -29.234375 10.890625 -28.546875 L 10.890625 -3.234375 C 10.921875 -2.984375 11.054688 -2.742188 11.296875 -2.515625 C 11.535156 -2.285156 11.804688 -2.171875 12.109375 -2.171875 L 21.125 -2.171875 C 22.476562 -2.171875 23.8125 -2.96875 25.125 -4.5625 C 25.476562 -4.988281 25.910156 -5.554688 26.421875 -6.265625 C 26.941406 -6.972656 27.265625 -7.375 27.390625 -7.46875 C 27.867188 -7.832031 28.109375 -7.820312 28.109375 -7.4375 C 28.109375 -7.34375 28.085938 -7.253906 28.046875 -7.171875 L 24.59375 -0.40625 C 24.457031 -0.132812 24.300781 0 24.125 0 Z M 1.09375 0 "/></g></g></g><g fill="#1cdaff" fill-opacity="1"><g transform="translate(161.319457, 230.486433)"><g><path d="M 0.15625 -0.1875 L 0.15625 -0.828125 C 0.15625 -0.941406 0.21875 -1 0.34375 -1 L 0.84375 -1 C 1.476562 -1.050781 2.128906 -1.078125 2.796875 -1.078125 C 3.472656 -1.085938 4.082031 -1.171875 4.625 -1.328125 C 5.875 -1.691406 6.5 -2.601562 6.5 -4.0625 L 6.5 -28.109375 C 6.5 -29.617188 5.609375 -30.578125 3.828125 -30.984375 C 3.328125 -31.097656 2.820312 -31.191406 2.3125 -31.265625 L 1.828125 -31.265625 C 1.703125 -31.265625 1.640625 -31.320312 1.640625 -31.4375 L 1.640625 -32 C 1.640625 -32.113281 1.703125 -32.171875 1.828125 -32.171875 L 23.53125 -32.171875 C 23.800781 -32.171875 23.992188 -32.117188 24.109375 -32.015625 C 24.234375 -31.921875 24.3125 -31.707031 24.34375 -31.375 L 24.765625 -24.765625 C 24.765625 -24.609375 24.648438 -24.53125 24.421875 -24.53125 C 24.191406 -24.53125 24.023438 -24.597656 23.921875 -24.734375 C 23.828125 -24.890625 23.707031 -25.445312 23.5625 -26.40625 C 23.414062 -27.363281 23.148438 -28.160156 22.765625 -28.796875 C 22.390625 -29.429688 21.722656 -29.832031 20.765625 -30 L 11.25 -30 C 11.050781 -30 10.953125 -29.90625 10.953125 -29.71875 L 10.953125 -17.90625 C 10.953125 -17.757812 11.03125 -17.6875 11.1875 -17.6875 L 19.078125 -17.6875 C 21.117188 -17.6875 22.140625 -18.875 22.140625 -21.25 C 22.140625 -21.363281 22.195312 -21.421875 22.3125 -21.421875 L 22.859375 -21.421875 C 22.984375 -21.421875 23.046875 -21.363281 23.046875 -21.25 L 23.046875 -11.484375 C 23.046875 -11.359375 22.984375 -11.296875 22.859375 -11.296875 L 22.3125 -11.296875 C 22.195312 -11.296875 22.140625 -11.359375 22.140625 -11.484375 C 22.140625 -13.734375 21.484375 -15.03125 20.171875 -15.375 C 19.804688 -15.46875 19.421875 -15.515625 19.015625 -15.515625 L 11.1875 -15.515625 C 11.03125 -15.515625 10.953125 -15.441406 10.953125 -15.296875 L 10.953125 -4.171875 C 10.953125 -3.035156 11.476562 -2.390625 12.53125 -2.234375 C 12.832031 -2.191406 13.148438 -2.171875 13.484375 -2.171875 L 21.078125 -2.171875 C 22.648438 -2.171875 23.867188 -2.863281 24.734375 -4.25 C 25.359375 -5.238281 25.738281 -6.367188 25.875 -7.640625 C 25.925781 -8.066406 26.15625 -8.28125 26.5625 -8.28125 C 26.738281 -8.28125 26.828125 -8.179688 26.828125 -7.984375 L 26.078125 -0.3125 C 25.992188 -0.101562 25.890625 0 25.765625 0 L 0.34375 0 C 0.21875 0 0.15625 -0.0625 0.15625 -0.1875 Z M 0.15625 -0.1875 "/></g></g></g><g fill="#1cdaff" fill-opacity="1"><g transform="translate(190.156095, 230.486433)"><g><path d="M 12.140625 -0.1875 C 12.140625 -0.0625 12.078125 0 11.953125 0 L 0.296875 0 C 0.171875 0 0.109375 -0.0625 0.109375 -0.1875 L 0.109375 -0.734375 C 0.109375 -0.847656 0.207031 -0.90625 0.40625 -0.90625 C 2.488281 -1 3.894531 -2.113281 4.625 -4.25 L 13.9375 -31.1875 C 13.957031 -31.21875 13.96875 -31.257812 13.96875 -31.3125 L 13.71875 -32.0625 C 13.71875 -32.132812 13.75 -32.171875 13.8125 -32.171875 L 18.375 -32.171875 C 18.40625 -32.160156 18.445312 -32.144531 18.5 -32.125 C 18.550781 -32.113281 18.59375 -32.070312 18.625 -32 L 28.265625 -4.90625 C 28.484375 -4.5 28.65625 -4.125 28.78125 -3.78125 C 28.914062 -3.445312 29.066406 -3.144531 29.234375 -2.875 C 29.597656 -2.25 30.195312 -1.769531 31.03125 -1.4375 C 31.726562 -1.082031 32.367188 -0.90625 32.953125 -0.90625 C 33.078125 -0.90625 33.140625 -0.835938 33.140625 -0.703125 L 33.140625 -0.1875 C 33.140625 -0.0625 33.078125 0 32.953125 0 L 18.984375 0 C 18.859375 0 18.796875 -0.0625 18.796875 -0.1875 L 18.796875 -0.734375 C 18.796875 -0.847656 19.078125 -0.921875 19.640625 -0.953125 C 20.203125 -0.984375 20.671875 -1.015625 21.046875 -1.046875 C 23.160156 -1.273438 24.21875 -1.988281 24.21875 -3.1875 C 24.21875 -3.28125 24.203125 -3.390625 24.171875 -3.515625 L 20.71875 -13.234375 C 20.707031 -13.265625 20.675781 -13.332031 20.625 -13.4375 C 20.445312 -13.957031 20.128906 -14.21875 19.671875 -14.21875 L 11.5625 -14.21875 C 11.113281 -14.21875 10.757812 -13.96875 10.5 -13.46875 C 10.445312 -13.351562 10.421875 -13.289062 10.421875 -13.28125 L 7 -3.265625 L 7 -3.0625 C 7 -2.664062 7.207031 -2.304688 7.625 -1.984375 C 8.550781 -1.265625 9.796875 -0.90625 11.359375 -0.90625 L 11.953125 -0.90625 C 12.078125 -0.90625 12.140625 -0.847656 12.140625 -0.734375 Z M 18.890625 -16.75 C 19.171875 -16.75 19.3125 -16.863281 19.3125 -17.09375 C 19.3125 -17.21875 19.28125 -17.351562 19.21875 -17.5 L 15.8125 -26.859375 C 15.65625 -27.265625 15.539062 -27.46875 15.46875 -27.46875 C 15.394531 -27.46875 15.273438 -27.253906 15.109375 -26.828125 L 11.90625 -17.5 C 11.851562 -17.351562 11.828125 -17.191406 11.828125 -17.015625 C 11.828125 -16.835938 11.9375 -16.75 12.15625 -16.75 Z M 18.890625 -16.75 "/></g></g></g><g fill="#1cdaff" fill-opacity="1"><g transform="translate(223.395801, 230.486433)"><g><path d="M 1.1875 0 C 1.0625 0 1 -0.148438 1 -0.453125 L 1 -0.734375 C 1 -0.847656 1.0625 -0.90625 1.1875 -0.90625 C 1.28125 -0.90625 1.425781 -0.921875 1.625 -0.953125 C 1.820312 -0.984375 2.023438 -1.015625 2.234375 -1.046875 C 2.453125 -1.078125 2.648438 -1.109375 2.828125 -1.140625 C 3.015625 -1.179688 3.144531 -1.210938 3.21875 -1.234375 C 4.769531 -1.578125 5.546875 -2.457031 5.546875 -3.875 L 5.546875 -27.984375 C 5.546875 -29.285156 5.019531 -30.210938 3.96875 -30.765625 C 3.34375 -31.097656 2.675781 -31.265625 1.96875 -31.265625 L 1.09375 -31.265625 C 0.96875 -31.265625 0.90625 -31.320312 0.90625 -31.4375 L 0.90625 -32 C 0.90625 -32.113281 1 -32.171875 1.1875 -32.171875 L 13.71875 -32.515625 L 16.015625 -32.515625 C 18.710938 -32.335938 20.96875 -31.359375 22.78125 -29.578125 C 24.601562 -27.804688 25.515625 -25.625 25.515625 -23.03125 C 25.515625 -20.4375 24.429688 -18.421875 22.265625 -16.984375 C 21.597656 -16.535156 20.878906 -16.140625 20.109375 -15.796875 L 27.015625 -4.5 C 28.222656 -2.519531 29.835938 -1.125 31.859375 -0.3125 C 32.023438 -0.269531 32.109375 -0.164062 32.109375 0 C 32.109375 0.382812 31.859375 0.578125 31.359375 0.578125 C 27.929688 0.578125 25.207031 -0.722656 23.1875 -3.328125 C 22.738281 -3.910156 22.296875 -4.554688 21.859375 -5.265625 L 15.953125 -14.53125 L 10.515625 -14.78125 L 10.34375 -14.78125 C 10.113281 -14.78125 10 -14.675781 10 -14.46875 L 10 -3.953125 C 10 -3.109375 10.234375 -2.476562 10.703125 -2.0625 C 11.171875 -1.65625 11.984375 -1.378906 13.140625 -1.234375 C 13.441406 -1.179688 13.8125 -1.113281 14.25 -1.03125 C 14.695312 -0.945312 15 -0.90625 15.15625 -0.90625 C 15.320312 -0.90625 15.40625 -0.847656 15.40625 -0.734375 L 15.40625 -0.1875 C 15.40625 -0.0625 15.34375 0 15.21875 0 Z M 11.828125 -31.3125 C 11.648438 -31.3125 11.457031 -31.304688 11.25 -31.296875 C 11.050781 -31.285156 10.789062 -31.273438 10.46875 -31.265625 C 10.15625 -31.265625 10 -31.140625 10 -30.890625 L 10 -17.0625 L 10.046875 -16.390625 C 10.085938 -16.066406 10.226562 -15.894531 10.46875 -15.875 L 12.796875 -15.75 C 17.078125 -15.75 19.65625 -17.269531 20.53125 -20.3125 C 20.820312 -21.269531 20.96875 -22.363281 20.96875 -23.59375 C 20.96875 -26 20.21875 -27.894531 18.71875 -29.28125 C 17.21875 -30.664062 15.304688 -31.359375 12.984375 -31.359375 C 12.773438 -31.359375 12.578125 -31.351562 12.390625 -31.34375 C 12.203125 -31.332031 12.015625 -31.320312 11.828125 -31.3125 Z M 11.828125 -31.3125 "/></g></g></g><g fill="#1cdaff" fill-opacity="1"><g transform="translate(255.768583, 230.486433)"><g><path d="M 1.546875 0 C 1.429688 0 1.375 -0.0625 1.375 -0.1875 L 1.375 -0.734375 C 1.375 -0.847656 1.445312 -0.90625 1.59375 -0.90625 L 2.125 -0.90625 C 2.957031 -0.90625 3.523438 -0.984375 3.828125 -1.140625 C 4.953125 -1.691406 5.515625 -3.195312 5.515625 -5.65625 L 5.515625 -29.375 C 5.515625 -30.382812 4.53125 -30.988281 2.5625 -31.1875 C 2.113281 -31.238281 1.800781 -31.265625 1.625 -31.265625 C 1.457031 -31.265625 1.375 -31.320312 1.375 -31.4375 L 1.375 -32 C 1.375 -32.113281 1.429688 -32.171875 1.546875 -32.171875 L 9.90625 -32.171875 L 31.5625 -8.234375 C 31.632812 -8.160156 31.6875 -8.101562 31.71875 -8.0625 C 31.75 -8.03125 31.796875 -8.015625 31.859375 -8.015625 C 31.929688 -8.015625 31.96875 -8.082031 31.96875 -8.21875 L 31.96875 -23.9375 C 31.96875 -26.96875 31.71875 -28.945312 31.21875 -29.875 C 30.71875 -30.800781 29.707031 -31.265625 28.1875 -31.265625 L 27.015625 -31.265625 C 26.890625 -31.265625 26.828125 -31.320312 26.828125 -31.4375 L 26.828125 -32 C 26.828125 -32.113281 26.890625 -32.171875 27.015625 -32.171875 L 38.890625 -32.171875 C 39.003906 -32.171875 39.0625 -32.113281 39.0625 -32 L 39.0625 -31.4375 C 39.0625 -31.320312 38.835938 -31.265625 38.390625 -31.265625 C 37.941406 -31.265625 37.203125 -31.003906 36.171875 -30.484375 C 35.148438 -29.972656 34.640625 -29.332031 34.640625 -28.5625 L 34.640625 -0.65625 C 34.640625 -0.320312 34.59375 -0.0820312 34.5 0.0625 C 34.40625 0.207031 34.1875 0.28125 33.84375 0.28125 C 33.507812 0.28125 33.257812 0.207031 33.09375 0.0625 C 32.925781 -0.0703125 32.726562 -0.269531 32.5 -0.53125 L 8.96875 -26.609375 C 8.8125 -26.753906 8.675781 -26.828125 8.5625 -26.828125 C 8.476562 -26.828125 8.4375 -26.753906 8.4375 -26.609375 L 8.4375 -3.828125 C 8.4375 -2.441406 9.535156 -1.53125 11.734375 -1.09375 C 12.335938 -0.96875 12.796875 -0.90625 13.109375 -0.90625 C 13.429688 -0.90625 13.59375 -0.847656 13.59375 -0.734375 L 13.59375 -0.1875 C 13.59375 -0.0625 13.535156 0 13.421875 0 Z M 1.546875 0 "/></g></g></g><g clip-path="url(#2e842c78f5)"><g clip-path="url(#f245a0d2a6)"><path fill="#00faa8" d="M 275.382812 143.714844 L 286.300781 143.714844 L 286.300781 154.636719 L 275.382812 154.636719 Z M 275.382812 143.714844 " fill-opacity="1" fill-rule="nonzero"/></g></g><g clip-path="url(#f73726c528)"><g clip-path="url(#28f9cf1274)"><path fill="url(#35051db629)" d="M 20.644531 128.9375 L 20.644531 233.925781 L 120.386719 233.925781 L 120.386719 128.9375 Z M 20.644531 128.9375 " fill-rule="nonzero"/></g></g></svg>